<?xml version="1.0"?>
<svg width="136" height="200" xmlns="http://www.w3.org/2000/svg" xmlns:svg="http://www.w3.org/2000/svg" preserveAspectRatio="xMidYMid meet" version="1.0">
 <g class="layer">
  <title>Layer 1</title>
  <g id="svg_1" transform="matrix(0.1 0 0 -0.1 0 0)">
   <path d="m90,-251l0,-154l429,-247c237,-137 434,-248 440,-248c12,0 289,157 309,175c9,8 12,50 10,163l-3,152l-140,-81c-77,-45 -149,-85 -160,-91c-17,-7 -94,33 -438,232c-230,133 -425,244 -433,247c-12,4 -14,-19 -14,-148z" fill="#007fff" id="svg_2"/>
   <path d="m92,-791l3,-154l195,-113l195,-114l45,23c69,37 231,131 228,134c-11,9 -637,365 -651,371c-16,6 -17,-4 -15,-147z" fill="#007fff" id="svg_3"/>
   <path d="m750,-1216c-283,-162 -548,-314 -587,-337l-73,-42l0,-153c0,-85 4,-152 9,-150c4,2 272,154 595,338l586,335l0,152c0,84 -4,153 -8,153c-4,0 -239,-133 -522,-296z" fill="#007fff" id="svg_4"/>
   <path d="m90,-1274c0,-69 2,-126 4,-126c6,0 200,111 208,119c4,4 -23,24 -60,45c-37,21 -86,50 -109,63l-43,25l0,-126z" fill="#007fff" id="svg_5"/>
  </g>
 </g>
</svg>